<svg width="242" height="334" viewBox="0 0 242 334" fill="none" xmlns="http://www.w3.org/2000/svg">
<path d="M223.364 102.564C225.768 126.87 217.02 144.097 197.122 154.247C212.747 157.986 224.432 164.864 232.178 174.88C239.924 184.896 242.928 199.185 241.192 217.748C240.257 227.23 238.087 235.577 234.682 242.788C231.276 250 226.969 255.943 221.761 260.617C216.553 265.291 210.076 269.197 202.33 272.336C194.584 275.474 186.471 277.778 177.991 279.247C169.511 280.716 159.795 281.717 148.845 282.251V333.333H117.995V283.053C107.311 283.053 99.1651 282.986 93.5561 282.852V333.333H62.7067V282.251C60.3029 282.251 56.6971 282.218 51.8894 282.151C47.0818 282.084 43.4092 282.051 40.8718 282.051H0.807739L7.01767 245.392H29.2532C35.9306 245.392 39.8034 241.987 40.8718 235.176V154.647H44.077C43.2757 154.514 42.2073 154.447 40.8718 154.447V96.955C39.1357 87.8739 33.1929 83.3333 23.0433 83.3333H0.807739V50.4807L43.2757 50.681C51.8227 50.681 58.2997 50.6143 62.7067 50.4807V0H93.5561V49.4791C104.507 49.212 112.653 49.0785 117.995 49.0785V0H148.845V50.4807C159.395 51.4156 168.743 52.918 176.889 54.9879C185.036 57.0579 192.581 60.0627 199.526 64.0023C206.47 67.942 211.979 73.1503 216.052 79.6273C220.125 86.1044 222.562 93.7499 223.364 102.564ZM180.295 211.739C180.295 206.931 179.293 202.657 177.29 198.918C175.287 195.179 172.816 192.107 169.878 189.703C166.94 187.3 163.101 185.263 158.36 183.594C153.619 181.924 149.245 180.689 145.239 179.888C141.232 179.086 136.291 178.485 130.415 178.085C124.539 177.684 119.932 177.484 116.593 177.484C113.254 177.484 108.947 177.551 103.672 177.684C98.3972 177.818 95.2254 177.884 94.1571 177.884V245.593C95.2254 245.593 97.6961 245.626 101.569 245.693C105.442 245.76 108.647 245.793 111.184 245.793C113.722 245.793 117.261 245.693 121.801 245.493C126.342 245.292 130.248 245.025 133.52 244.691C136.792 244.357 140.598 243.79 144.938 242.989C149.279 242.187 152.984 241.252 156.056 240.184C159.128 239.116 162.299 237.713 165.571 235.977C168.843 234.241 171.481 232.238 173.484 229.968C175.487 227.697 177.123 225.027 178.392 221.955C179.66 218.883 180.295 215.478 180.295 211.739ZM166.072 116.386C166.072 111.979 165.237 108.073 163.568 104.667C161.899 101.262 159.862 98.4575 157.458 96.2539C155.054 94.0504 151.849 92.1807 147.843 90.645C143.837 89.1092 140.164 88.0074 136.825 87.3397C133.487 86.6719 129.38 86.1377 124.506 85.7371C119.631 85.3365 115.758 85.1695 112.887 85.2363C110.016 85.3031 106.41 85.3699 102.07 85.4366C97.7294 85.5034 95.0919 85.5368 94.1571 85.5368V147.035C94.8248 147.035 97.1285 147.069 101.068 147.135C105.008 147.202 108.113 147.202 110.383 147.135C112.653 147.069 115.992 146.935 120.399 146.735C124.806 146.534 128.479 146.167 131.417 145.633C134.355 145.099 137.794 144.364 141.733 143.429C145.673 142.495 148.911 141.259 151.449 139.723C153.986 138.188 156.457 136.385 158.861 134.315C161.264 132.245 163.067 129.674 164.269 126.602C165.471 123.531 166.072 120.125 166.072 116.386Z" fill="white"/>
</svg>