<svg width="425" height="425" viewBox="0 0 425 425" fill="none" xmlns="http://www.w3.org/2000/svg">
<g clip-path="url(#clip0_715_648)">
<path d="M205.912 1.74884C207.919 0.602796 210.189 0 212.5 0C214.811 0 217.081 0.602796 219.088 1.74884L318.697 58.6723C320.73 59.8334 322.419 61.5112 323.595 63.5357C324.77 65.5602 325.39 67.8594 325.391 70.2004V176.318L418.306 229.443C420.331 230.599 422.016 232.269 423.191 234.283C424.366 236.297 424.99 238.586 425 240.918V354.764C424.999 357.105 424.38 359.405 423.204 361.429C422.029 363.454 420.339 365.131 418.306 366.293L318.697 423.216C316.691 424.362 314.42 424.965 312.109 424.965C309.799 424.965 307.528 424.362 305.522 423.216L212.5 370.091L119.478 423.243C117.472 424.389 115.201 424.991 112.891 424.991C110.58 424.991 108.309 424.389 106.303 423.243L6.69375 366.319C4.661 365.158 2.97127 363.48 1.79577 361.456C0.620268 359.431 0.000755093 357.132 0 354.791L0 240.944C0.000755093 238.603 0.620268 236.304 1.79577 234.279C2.97127 232.255 4.661 230.577 6.69375 229.416L99.6094 176.318V70.2004C99.6101 67.8594 100.23 65.5602 101.405 63.5357C102.581 61.5112 104.27 59.8334 106.303 58.6723L205.912 1.74884ZM112.891 199.321L40.0563 240.944L112.891 282.568L185.725 240.944L112.891 199.321ZM199.219 263.841L126.172 305.571V388.818L199.219 347.088V263.841ZM225.781 347.088L298.828 388.818V305.571L225.781 263.841V347.088ZM239.275 240.944L312.109 282.568L384.944 240.944L312.109 199.321L239.275 240.944ZM298.828 176.318V93.0707L225.781 134.827V218.074L298.828 176.318ZM199.219 218.074V134.827L126.172 93.0707V176.318L199.219 218.074ZM139.666 70.2004L212.5 111.824L285.334 70.2004L212.5 28.577L139.666 70.2004ZM398.438 263.841L325.391 305.571V388.818L398.438 347.088V263.841ZM99.6094 388.818V305.571L26.5625 263.841V347.088L99.6094 388.818Z" fill="white"/>
</g>
<defs>
<clipPath id="clip0_715_648">
<rect width="425" height="425" fill="white"/>
</clipPath>
</defs>
</svg>
