<svg width="154" height="154" viewBox="0 0 154 154" fill="none" xmlns="http://www.w3.org/2000/svg">
<circle cx="77" cy="77" r="77" fill="#EA5501"/>
<path d="M103.833 73.1963H50.1667C45.9325 73.1963 42.5 76.6312 42.5 80.8684V107.721C42.5 111.958 45.9325 115.393 50.1667 115.393H103.833C108.068 115.393 111.5 111.958 111.5 107.721V80.8684C111.5 76.6312 108.068 73.1963 103.833 73.1963Z" stroke="white" stroke-width="10" stroke-linecap="round" stroke-linejoin="round"/>
<path d="M57.8334 73.1963V57.8522C57.8334 52.7653 59.8527 47.8868 63.4472 44.2898C67.0416 40.6928 71.9167 38.6721 77 38.6721C82.0834 38.6721 86.9585 40.6928 90.5529 44.2898C94.1474 47.8868 96.1667 52.7653 96.1667 57.8522V73.1963" stroke="white" stroke-width="10" stroke-linecap="round" stroke-linejoin="round"/>
</svg>
