<svg width="155" height="154" viewBox="0 0 155 154" fill="none" xmlns="http://www.w3.org/2000/svg">
<ellipse cx="77.8237" cy="77.0415" rx="76.9044" ry="76.9585" fill="url(#paint0_linear_532_121)"/>
<g clip-path="url(#clip0_532_121)">
<path d="M77.3633 89.023C83.7216 89.023 88.876 83.865 88.876 77.5023C88.876 71.1395 83.7216 65.9815 77.3633 65.9815C71.0051 65.9815 65.8507 71.1395 65.8507 77.5023C65.8507 83.865 71.0051 89.023 77.3633 89.023Z" stroke="white" stroke-width="10" stroke-linecap="round" stroke-linejoin="round"/>
<path d="M105.761 89.023C105.25 90.1813 105.098 91.4661 105.324 92.7119C105.549 93.9576 106.143 95.1072 107.028 96.0122L107.258 96.2427C107.971 96.956 108.537 97.803 108.924 98.7354C109.31 99.6678 109.509 100.667 109.509 101.677C109.509 102.686 109.31 103.685 108.924 104.618C108.537 105.55 107.971 106.397 107.258 107.111C106.545 107.825 105.698 108.391 104.767 108.778C103.835 109.164 102.836 109.363 101.828 109.363C100.819 109.363 99.8203 109.164 98.8885 108.778C97.9568 108.391 97.1103 107.825 96.3975 107.111L96.1673 106.88C95.2628 105.995 94.1141 105.401 92.8692 105.175C91.6243 104.949 90.3404 105.102 89.1829 105.613C88.0479 106.1 87.0799 106.908 86.398 107.938C85.7162 108.969 85.3503 110.176 85.3454 111.412V112.064C85.3454 114.101 84.5367 116.055 83.0974 117.495C81.658 118.936 79.7058 119.745 77.6703 119.745C75.6347 119.745 73.6825 118.936 72.2432 117.495C70.8038 116.055 69.9952 114.101 69.9952 112.064V111.719C69.9655 110.448 69.5543 109.215 68.8152 108.181C68.076 107.147 67.0431 106.359 65.8506 105.92C64.6932 105.409 63.4092 105.256 62.1643 105.482C60.9195 105.708 59.7707 106.302 58.8663 107.187L58.6361 107.418C57.9232 108.132 57.0768 108.698 56.145 109.085C55.2133 109.471 54.2145 109.67 53.2059 109.67C52.1973 109.67 51.1986 109.471 50.2668 109.085C49.3351 108.698 48.4886 108.132 47.7758 107.418C47.0622 106.704 46.4961 105.857 46.1098 104.925C45.7236 103.993 45.5248 102.993 45.5248 101.984C45.5248 100.974 45.7236 99.9751 46.1098 99.0427C46.4961 98.1103 47.0622 97.2632 47.7758 96.5499L48.006 96.3195C48.8907 95.4144 49.4842 94.2649 49.7099 93.0191C49.9357 91.7734 49.7833 90.4885 49.2724 89.3302C48.786 88.1944 47.9782 87.2257 46.9487 86.5434C45.9191 85.8611 44.7126 85.4949 43.4777 85.49H42.8254C40.7898 85.49 38.8376 84.6808 37.3983 83.2404C35.9589 81.8 35.1503 79.8465 35.1503 77.8095C35.1503 75.7725 35.9589 73.8189 37.3983 72.3786C38.8376 70.9382 40.7898 70.129 42.8254 70.129H43.1707C44.4409 70.0993 45.6728 69.6878 46.7063 68.9482C47.7397 68.2085 48.5269 67.1748 48.9654 65.9815C49.4763 64.8232 49.6287 63.5384 49.4029 62.2926C49.1772 61.0469 48.5837 59.8973 47.699 58.9923L47.4688 58.7619C46.7552 58.0485 46.1891 57.2015 45.8028 56.2691C45.4166 55.3367 45.2178 54.3372 45.2178 53.3279C45.2178 52.3186 45.4166 51.3191 45.8028 50.3867C46.1891 49.4543 46.7552 48.6073 47.4688 47.894C48.1816 47.1799 49.0281 46.6134 49.9598 46.2268C50.8916 45.8403 51.8903 45.6414 52.8989 45.6414C53.9075 45.6414 54.9063 45.8403 55.838 46.2268C56.7698 46.6134 57.6162 47.1799 58.329 47.894L58.5593 48.1244C59.4637 49.0097 60.6124 49.6036 61.8573 49.8295C63.1022 50.0553 64.3862 49.9029 65.5436 49.3917H65.8506C66.9857 48.9049 67.9537 48.0966 68.6355 47.0663C69.3174 46.036 69.6833 44.8286 69.6882 43.5929V42.94C69.6882 40.9031 70.4968 38.9495 71.9362 37.5091C73.3755 36.0687 75.3277 35.2596 77.3633 35.2596C79.3988 35.2596 81.351 36.0687 82.7904 37.5091C84.2297 38.9495 85.0384 40.9031 85.0384 42.94V43.2857C85.0433 44.5214 85.4092 45.7287 86.091 46.759C86.7729 47.7893 87.7409 48.5976 88.8759 49.0844C90.0334 49.5956 91.3173 49.7481 92.5622 49.5222C93.8071 49.2964 94.9558 48.7025 95.8603 47.8172L96.0905 47.5867C96.8033 46.8726 97.6498 46.3061 98.5815 45.9196C99.5133 45.5331 100.512 45.3342 101.521 45.3342C102.529 45.3342 103.528 45.5331 104.46 45.9196C105.391 46.3061 106.238 46.8726 106.951 47.5867C107.664 48.3001 108.23 49.1471 108.617 50.0795C109.003 51.0119 109.202 52.0114 109.202 53.0207C109.202 54.03 109.003 55.0295 108.617 55.9619C108.23 56.8943 107.664 57.7413 106.951 58.4546L106.721 58.6851C105.836 59.5901 105.242 60.7396 105.017 61.9854C104.791 63.2312 104.943 64.516 105.454 65.6743V65.9815C105.941 67.1173 106.748 68.086 107.778 68.7684C108.807 69.4507 110.014 69.8168 111.249 69.8218H111.901C113.937 69.8218 115.889 70.631 117.328 72.0713C118.768 73.5117 119.576 75.4653 119.576 77.5023C119.576 79.5393 118.768 81.4928 117.328 82.9332C115.889 84.3736 113.937 85.1827 111.901 85.1827H111.556C110.321 85.1877 109.114 85.5538 108.085 86.2362C107.055 86.9185 106.248 87.8872 105.761 89.023Z" stroke="white" stroke-width="10" stroke-linecap="round" stroke-linejoin="round"/>
</g>
<defs>
<linearGradient id="paint0_linear_532_121" x1="77.8237" y1="0.0829468" x2="77.8237" y2="154" gradientUnits="userSpaceOnUse">
<stop stop-color="#EA5501"/>
<stop offset="1" stop-color="#AF2A00"/>
</linearGradient>
<clipPath id="clip0_532_121">
<rect width="92.1011" height="92.1659" fill="white" transform="translate(31.3127 31.4193)"/>
</clipPath>
</defs>
</svg>
