<svg width="20" height="17" viewBox="0 0 20 17" fill="none" xmlns="http://www.w3.org/2000/svg">
<path id="Vector" d="M19.97 2.46378C19.4539 3.15213 18.8301 3.75258 18.1227 4.24195C18.1227 4.42177 18.1227 4.60158 18.1227 4.79139C18.1284 8.0568 16.8241 11.1879 14.5021 13.4828C12.1802 15.7777 9.0349 17.0443 5.77132 16.9988C3.88459 17.0051 2.02202 16.5743 0.329513 15.7401C0.238253 15.7003 0.179393 15.61 0.179733 15.5103V15.4005C0.179733 15.257 0.295963 15.1407 0.439343 15.1407C2.29396 15.0796 4.0824 14.4366 5.55165 13.3026C3.87297 13.2688 2.36258 12.2744 1.66749 10.7453C1.63239 10.6617 1.64332 10.5659 1.69634 10.4925C1.74937 10.419 1.83682 10.3785 1.9271 10.3856C2.43729 10.4369 2.95258 10.3894 3.44482 10.2458C1.5917 9.8611 0.199283 8.3227 3.14694e-06 6.4397C-0.00707685 6.3494 0.0334032 6.2619 0.106823 6.2088C0.180243 6.1558 0.275983 6.1448 0.359463 6.18C0.856763 6.3994 1.39359 6.515 1.93709 6.5196C0.313313 5.45384 -0.388047 3.42672 0.229663 1.58469C0.293423 1.4057 0.446613 1.27347 0.632933 1.2366C0.819253 1.19972 1.01122 1.26365 1.13829 1.40487C3.32948 3.73695 6.3402 5.12662 9.5357 5.28088C9.4538 4.95427 9.4135 4.61862 9.4158 4.28191C9.4457 2.51636 10.5381 0.943571 12.1817 0.299861C13.8252 -0.343849 15.6945 0.0689315 16.9146 1.34494C17.7462 1.18651 18.5502 0.907161 19.301 0.515791C19.356 0.481451 19.4257 0.481451 19.4807 0.515791C19.515 0.570811 19.515 0.640581 19.4807 0.695601C19.117 1.52835 18.5027 2.2268 17.7233 2.69355C18.4058 2.6144 19.0763 2.45341 19.7203 2.21404C19.7746 2.17713 19.8458 2.17713 19.9001 2.21404C19.9455 2.23482 19.9795 2.27457 19.9929 2.32269C20.0064 2.37081 19.998 2.42242 19.97 2.46378Z" fill="#8394A3"/>
</svg>
