<svg width="15" height="12" viewBox="0 0 15 12" fill="none" xmlns="http://www.w3.org/2000/svg">
<path id="Vector" d="M14.25 0.5H0.75C0.546875 0.5 0.371094 0.574219 0.222656 0.722656C0.0742188 0.871094 0 1.04688 0 1.25V2C0 2.20312 0.0742188 2.37891 0.222656 2.52734C0.371094 2.67578 0.546875 2.75 0.75 2.75H14.25C14.4531 2.75 14.6289 2.67578 14.7773 2.52734C14.9258 2.37891 15 2.20312 15 2V1.25C15 1.04688 14.9258 0.871094 14.7773 0.722656C14.6289 0.574219 14.4531 0.5 14.25 0.5ZM14.25 5H0.75C0.546875 5 0.371094 5.07422 0.222656 5.22266C0.0742188 5.37109 0 5.54688 0 5.75V6.5C0 6.70312 0.0742188 6.87891 0.222656 7.02734C0.371094 7.17578 0.546875 7.25 0.75 7.25H14.25C14.4531 7.25 14.6289 7.17578 14.7773 7.02734C14.9258 6.87891 15 6.70312 15 6.5V5.75C15 5.54688 14.9258 5.37109 14.7773 5.22266C14.6289 5.07422 14.4531 5 14.25 5ZM14.25 9.5H0.75C0.546875 9.5 0.371094 9.57422 0.222656 9.72266C0.0742188 9.87109 0 10.0469 0 10.25V11C0 11.2031 0.0742188 11.3789 0.222656 11.5273C0.371094 11.6758 0.546875 11.75 0.75 11.75H14.25C14.4531 11.75 14.6289 11.6758 14.7773 11.5273C14.9258 11.3789 15 11.2031 15 11V10.25C15 10.0469 14.9258 9.87109 14.7773 9.72266C14.6289 9.57422 14.4531 9.5 14.25 9.5Z" fill="white"/>
</svg>
